<mxfile host="app.diagrams.net" agent="Mozilla/5.0 (Windows NT 10.0; Win64; x64) AppleWebKit/537.36 (KHTML, like Gecko) Chrome/136.0.0.0 Safari/537.36" version="27.0.2">
  <diagram name="Page-1" id="BGZWf_MGmBaAXg0mpmOT">
    <mxGraphModel dx="872" dy="473" grid="1" gridSize="10" guides="1" tooltips="1" connect="1" arrows="1" fold="1" page="1" pageScale="1" pageWidth="850" pageHeight="1100" math="0" shadow="0">
      <root>
        <mxCell id="0" />
        <mxCell id="1" parent="0" />
        <UserObject label="compilador-medico/&#xa;├── backend/&#xa;│   ├── app/&#xa;│   │   ├── main.py                 # Entrada do backend (FastAPI)&#xa;│   │   ├── routes/&#xa;│   │   │   ├── pacientes.py&#xa;│   │   │   ├── consultas.py&#xa;│   │   │   └── medicamentos.py&#xa;│   │   ├── services/&#xa;│   │   │   └── compilador_service.py  # Onde entra a lógica do compilador&#xa;│   │   ├── models/&#xa;│   │   │   └── database_models.py&#xa;│   │   └── database/&#xa;│   │       ├── connection.py&#xa;│   │       └── schema.sql&#xa;│   └── requirements.txt&#xa;│&#xa;├── compilador_core/&#xa;│   ├── lexer.py              # Analisador léxico&#xa;│   ├── parser.py             # Analisador sintático&#xa;│   ├── semantic.py           # Valida semântica médica&#xa;│   └── codegen.py            # Gera comandos e ações no sistema&#xa;│&#xa;├── frontend/&#xa;│   ├── public/&#xa;│   ├── src/&#xa;│   │   ├── components/&#xa;│   │   ├── pages/&#xa;│   │   └── App.tsx&#xa;│   └── package.json&#xa;│&#xa;└── docs/&#xa;    └── arquitetura.drawio    # Diagrama completo do sistema" link="data:page/id,BGZWf_MGmBaAXg0mpmOT" id="3WsGtOGqYIpcskWNRWoG-1">
          <mxCell style="text;whiteSpace=wrap;" vertex="1" parent="1">
            <mxGeometry x="190" y="190" width="430" height="500" as="geometry" />
          </mxCell>
        </UserObject>
      </root>
    </mxGraphModel>
  </diagram>
</mxfile>
